<svg xmlns="http://www.w3.org/2000/svg" version="1.1" xmlns:xlink="http://www.w3.org/1999/xlink" xmlns:svgjs="http://svgjs.dev/svgjs" width="1000" height="1000" viewBox="0 0 1000 1000"><rect width="1000" height="1000" fill="#0c1d36"></rect><g transform="matrix(0.7,0,0,0.7,149.90044910179654,149.90044910179637)"><svg viewBox="0 0 334 334" data-background-color="#0c1d36" preserveAspectRatio="xMidYMid meet" height="1000" width="1000" xmlns="http://www.w3.org/2000/svg" xmlns:xlink="http://www.w3.org/1999/xlink"><g id="tight-bounds" transform="matrix(1,0,0,1,0.04749999999998522,0.04750000000001364)"><svg viewBox="0 0 333.90454557049503 333.90454557049503" height="333.90454557049503" width="333.90454557049503"><g><svg></svg></g><g><svg viewBox="0 0 333.90454557049503 333.90454557049503" height="333.90454557049503" width="333.90454557049503"><g><path d="M0 166.952c0-92.205 74.747-166.952 166.952-166.952 92.205 0 166.952 74.747 166.953 166.952 0 92.205-74.747 166.952-166.953 166.953-92.205 0-166.952-74.747-166.952-166.953zM166.952 316.63c82.665 0 149.677-67.013 149.678-149.678 0-82.665-67.013-149.677-149.678-149.677-82.665 0-149.677 67.013-149.677 149.677 0 82.665 67.013 149.677 149.677 149.678z" data-fill-palette-color="tertiary" fill="#f9cc0b" stroke="transparent"></path><ellipse rx="160.27418187383762" ry="160.27418187383762" cx="166.95227278524752" cy="166.95227278524752" fill="#f9cc0b" stroke="transparent" stroke-width="0" fill-opacity="1" data-fill-palette-color="tertiary"></ellipse></g><g transform="matrix(1,0,0,1,111.9992981264244,71.17305217166896)"><svg viewBox="0 0 109.90594931764622 191.55844122715712" height="191.55844122715712" width="109.90594931764622"><g><svg viewBox="0 0 109.90594931764622 191.55844122715712" height="191.55844122715712" width="109.90594931764622"><g><svg viewBox="0 0 109.90594931764622 191.55844122715712" height="191.55844122715712" width="109.90594931764622"><g><svg viewBox="0 0 109.90594931764622 191.55844122715712" height="191.55844122715712" width="109.90594931764622"><g><svg viewBox="0 0 109.90594931764622 191.55844122715712" height="191.55844122715712" width="109.90594931764622"><g><svg viewBox="0 0 109.90594931764622 191.55844122715712" height="191.55844122715712" width="109.90594931764622"><g transform="matrix(1,0,0,1,0,0)"><svg width="109.90594931764622" viewBox="0.4 -33.05 19.450000000000003 33.9" height="191.55844122715712" data-palette-color="#0c1d36"><path d="M5.3 0.85L5.3 0.85Q2.9 0.85 1.65-0.05 0.4-0.95 0.4-2.5L0.4-2.5Q0.4-3.85 1.33-4.6 2.25-5.35 3.5-5.35L3.5-5.35Q4.8-5.35 5.78-4.8 6.75-4.25 7.65-2.95L7.65-2.95 8.3-1.8Q8.65-1.45 9.1-1.5 9.55-1.55 9.75-2.05L9.75-2.05Q10.05-3.05 10.18-4.78 10.3-6.5 10.3-8.95L10.3-8.95Q10.3-11.95 10.18-16.75 10.05-21.55 9.9-29.05L9.9-29.05Q9.85-30.1 9.47-30.75 9.1-31.4 8.2-31.7L8.2-31.7 7.1-32 7.1-33.05 19.85-33.05 19.85-32 18.8-31.7Q17.85-31.4 17.53-30.8 17.2-30.2 17.2-29.2L17.2-29.2 17.2-19.4Q17.2-14.55 16.8-11.45 16.4-8.35 15.45-6.1L15.45-6.1Q14.2-2.7 11.43-0.93 8.65 0.85 5.3 0.85Z" opacity="1" transform="matrix(1,0,0,1,0,0)" fill="#0c1d36" class="undefined-text-0" data-fill-palette-color="quaternary" id="text-0"></path></svg></g></svg></g></svg></g></svg></g><g></g></svg></g></svg></g></svg></g></svg></g><defs></defs></svg><rect width="333.90454557049503" height="333.90454557049503" fill="none" stroke="none" visibility="hidden"></rect></g></svg></g></svg>