<svg xmlns="http://www.w3.org/2000/svg" version="1.1" xmlns:xlink="http://www.w3.org/1999/xlink" xmlns:svgjs="http://svgjs.dev/svgjs" width="1000" height="1000" viewBox="0 0 1000 1000"><rect width="1000" height="1000" fill="#ffffff"></rect><g transform="matrix(0.7,0,0,0.7,149.84897959183667,150.19913061224486)"><svg viewBox="0 0 343 343" data-background-color="#0c1d36" preserveAspectRatio="xMidYMid meet" height="999" width="1000" xmlns="http://www.w3.org/2000/svg" xmlns:xlink="http://www.w3.org/1999/xlink"><g id="tight-bounds" transform="matrix(1,0,0,1,0.0740000000000407,0.07400000000001228)"><svg viewBox="0 0 342.85155851775386 342.85155851775386" height="342.85155851775386" width="342.85155851775386"><g><svg></svg></g><g><svg viewBox="0 0 342.85155851775386 342.85155851775386" height="342.85155851775386" width="342.85155851775386"><g><path d="M0 171.426c0-94.676 76.75-171.426 171.426-171.426 94.676 0 171.426 76.75 171.426 171.426 0 94.676-76.75 171.426-171.426 171.426-94.676 0-171.426-76.75-171.426-171.426zM171.426 338.035c92.016 0 166.609-74.594 166.609-166.609 0-92.016-74.594-166.609-166.609-166.61-92.016 0-166.609 74.594-166.61 166.61 0 92.016 74.594 166.609 166.61 166.609z" data-fill-palette-color="tertiary" fill="#f9cc0b" stroke="transparent"></path><ellipse rx="164.56874808852186" ry="164.56874808852186" cx="171.42577925887693" cy="171.42577925887693" fill="#f9cc0b" stroke="transparent" stroke-width="0" fill-opacity="1" data-fill-palette-color="tertiary"></ellipse></g><g transform="matrix(1,0,0,1,64.84655864529837,101.51298002751543)"><svg viewBox="0 0 213.1584412271571 139.825598462723" height="139.825598462723" width="213.1584412271571"><g><svg viewBox="0 0 213.1584412271571 139.825598462723" height="139.825598462723" width="213.1584412271571"><g><svg viewBox="0 0 213.1584412271571 139.825598462723" height="139.825598462723" width="213.1584412271571"><g transform="matrix(1,0,0,1,0,86.41782937476566)"><svg viewBox="0 0 213.1584412271571 53.407769087957334" height="53.407769087957334" width="213.1584412271571"><g><svg viewBox="0 0 213.1584412271571 53.407769087957334" height="53.407769087957334" width="213.1584412271571" id="textblock"><g><svg viewBox="0 0 213.1584412271571 53.407769087957334" height="53.407769087957334" width="213.1584412271571"><g transform="matrix(1,0,0,1,0,0)"><svg width="213.1584412271571" viewBox="0.4000000059604645 -33.04999923706055 135.29000854492188 33.89999771118164" height="53.407769087957334" data-palette-color="#0c1d36"><path d="M5.3 0.85L5.3 0.85Q2.9 0.85 1.65-0.05 0.4-0.95 0.4-2.5L0.4-2.5Q0.4-3.85 1.33-4.6 2.25-5.35 3.5-5.35L3.5-5.35Q4.8-5.35 5.78-4.8 6.75-4.25 7.65-2.95L7.65-2.95 8.3-1.8Q8.65-1.45 9.1-1.5 9.55-1.55 9.75-2.05L9.75-2.05Q10.05-3.05 10.18-4.78 10.3-6.5 10.3-8.95L10.3-8.95Q10.3-11.95 10.18-16.75 10.05-21.55 9.9-29.05L9.9-29.05Q9.85-30.1 9.47-30.75 9.1-31.4 8.2-31.7L8.2-31.7 7.1-32 7.1-33.05 19.85-33.05 19.85-32 18.8-31.7Q17.85-31.4 17.53-30.8 17.2-30.2 17.2-29.2L17.2-29.2 17.2-19.4Q17.2-14.55 16.8-11.45 16.4-8.35 15.45-6.1L15.45-6.1Q14.2-2.7 11.43-0.93 8.65 0.85 5.3 0.85ZM29.3 0.7L29.3 0.7Q26.45 0.7 24.47-0.93 22.5-2.55 22.5-5.6L22.5-5.6Q22.5-8 24.82-10.03 27.15-12.05 32.15-13L32.15-13Q33-13.2 34.12-13.38 35.25-13.55 36.35-13.75L36.35-13.75 36.35-17.3Q36.35-20.7 35.5-22 34.65-23.3 32.8-23.3L32.8-23.3 32.65-23.3Q31.5-23.3 30.82-22.58 30.15-21.85 29.95-20.2L29.95-20.2 29.8-19.55Q29.65-17.55 28.75-16.63 27.85-15.7 26.5-15.7L26.5-15.7Q25.25-15.7 24.42-16.48 23.6-17.25 23.6-18.5L23.6-18.5Q23.6-20.55 25-21.95 26.4-23.35 28.72-24.05 31.05-24.75 33.75-24.75L33.75-24.75Q38.2-24.75 40.55-22.6 42.9-20.45 42.9-15.6L42.9-15.6 42.9-4.45Q42.9-2.3 44.95-2.3L44.95-2.3 46.1-2.3 46.6-1.75Q45.7-0.6 44.6 0.03 43.5 0.65 41.6 0.65L41.6 0.65Q39.45 0.65 38.17-0.38 36.9-1.4 36.5-3.1L36.5-3.1Q34.9-1.4 33.35-0.35 31.8 0.7 29.3 0.7ZM32.2-2.5L32.2-2.5Q33.2-2.5 34.1-2.95 35-3.4 36.35-4.45L36.35-4.45 36.35-12.45Q35.05-12.25 33.7-11.95L33.7-11.95Q31.55-11.45 30.22-10.1 28.9-8.75 28.9-6.45L28.9-6.45Q28.9-4.45 29.82-3.48 30.75-2.5 32.2-2.5ZM59.2 0L47.75 0 47.75-1 48.85-1.3Q49.65-1.55 49.9-2.02 50.15-2.5 50.2-3.3L50.2-3.3 50.2-13.2Q50.2-14.85 50.2-16 50.2-17.15 50.15-18.7L50.15-18.7Q50.15-19.55 49.9-20.03 49.65-20.5 48.8-20.7L48.8-20.7 47.75-20.95 47.75-21.85 55.85-24.75 56.45-24.2 56.8-20.85Q58.55-22.45 60.7-23.6 62.85-24.75 65.1-24.75L65.1-24.75Q67.6-24.75 69-23.75 70.4-22.75 71.15-20.7L71.15-20.7Q73.05-22.6 75.35-23.68 77.65-24.75 79.9-24.75L79.9-24.75Q83.3-24.75 85-23.05 86.7-21.35 86.7-17.7L86.7-17.7 86.7-3.25Q86.7-1.65 88.1-1.25L88.1-1.25 89.05-1 89.05 0 77.8 0 77.8-1 78.7-1.25Q80.05-1.7 80.05-3.3L80.05-3.3 80.05-17.95Q80.05-20.1 79.27-20.88 78.5-21.65 76.75-21.65L76.75-21.65Q75.4-21.65 74.2-21.1 73-20.55 71.55-19.4L71.55-19.4Q71.85-17.9 71.85-15.95L71.85-15.95 71.85-3.25Q71.9-2.4 72.17-1.93 72.45-1.45 73.25-1.25L73.25-1.25 74.1-1 74.1 0 62.8 0 62.8-1 63.85-1.3Q64.65-1.55 64.92-2.02 65.2-2.5 65.2-3.3L65.2-3.3 65.2-17.9Q65.2-19.95 64.45-20.8 63.7-21.65 61.9-21.65L61.9-21.65Q59.6-21.65 56.95-19.45L56.95-19.45 56.95-3.25Q56.95-1.6 58.35-1.25L58.35-1.25 59.2-1 59.2 0ZM103.59-24.75L103.59-24.75Q106.74-24.75 108.99-23.45 111.24-22.15 112.47-19.88 113.69-17.6 113.69-14.65L113.69-14.65Q113.69-14 113.64-13.43 113.59-12.85 113.44-12.35L113.44-12.35 98.39-12.35Q98.44-7.2 100.32-4.95 102.19-2.7 105.79-2.7L105.79-2.7Q108.29-2.7 109.84-3.53 111.39-4.35 112.69-5.85L112.69-5.85 113.49-5.1Q111.99-2.35 109.42-0.83 106.84 0.7 103.29 0.7L103.29 0.7Q99.74 0.7 97.04-0.8 94.34-2.3 92.82-5.13 91.29-7.95 91.29-11.9L91.29-11.9Q91.29-16 93.07-18.85 94.84-21.7 97.67-23.23 100.49-24.75 103.59-24.75ZM103.34-23.3L103.34-23.3Q101.89-23.3 100.82-22.48 99.74-21.65 99.12-19.58 98.49-17.5 98.39-13.75L98.39-13.75 107.34-13.75Q107.89-18.8 106.94-21.05 105.99-23.3 103.34-23.3ZM124.89 0.7L124.89 0.7Q122.49 0.7 120.57 0.18 118.64-0.35 116.89-1.3L116.89-1.3 116.89-7.2 118.24-7.2 119.74-4.35Q120.69-2.5 121.92-1.6 123.14-0.7 125.04-0.7L125.04-0.7Q127.39-0.7 128.79-1.73 130.19-2.75 130.19-4.5L130.19-4.5Q130.19-6.1 129.14-7.1 128.09-8.1 125.39-8.95L125.39-8.95 123.19-9.65Q120.24-10.55 118.52-12.38 116.79-14.2 116.79-16.95L116.79-16.95Q116.79-19.1 117.94-20.88 119.09-22.65 121.29-23.7 123.49-24.75 126.64-24.75L126.64-24.75Q128.69-24.75 130.42-24.28 132.14-23.8 133.79-22.95L133.79-22.95 133.49-17.6 132.19-17.6 130.64-20.45Q129.84-22.05 129.02-22.68 128.19-23.3 126.49-23.3L126.49-23.3Q124.69-23.3 123.32-22.38 121.94-21.45 121.94-19.8L121.94-19.8Q121.94-18.25 123.09-17.28 124.24-16.3 126.79-15.45L126.79-15.45 128.94-14.8Q132.59-13.65 134.14-11.75 135.69-9.85 135.69-7.2L135.69-7.2Q135.69-3.65 132.87-1.48 130.04 0.7 124.89 0.7Z" opacity="1" transform="matrix(1,0,0,1,0,0)" fill="#0c1d36" class="undefined-text-0" data-fill-palette-color="quaternary" id="text-0"></path></svg></g></svg></g></svg></g></svg></g><g transform="matrix(1,0,0,1,74.67197290002005,0)"><svg viewBox="0 0 63.81449542711702 73.80953687955704" height="73.80953687955704" width="63.81449542711702"><g><svg xmlns="http://www.w3.org/2000/svg" xmlns:xlink="http://www.w3.org/1999/xlink" version="1.1" x="0" y="0" viewBox="9 1 83 96" enable-background="new 0 0 100 100" xml:space="preserve" height="73.80953687955704" width="63.81449542711702" class="icon-icon-0" data-fill-palette-color="quaternary" id="icon-0"><g fill="#0c1d36" data-fill-palette-color="quaternary"><path fill="#0c1d36" d="M71.3 10.01C57.831 10.01 50.55 1 50.55 1s-7.306 9.01-20.774 9.01C17.371 10.01 9 2.528 9 2.528v48.928C9.378 83.682 50.5 97 50.5 97S92 83.682 92 51.456V2.528C92 2.528 83.703 10.01 71.3 10.01z" data-fill-palette-color="quaternary"></path></g></svg></g></svg></g><g></g></svg></g></svg></g></svg></g></svg></g><defs></defs></svg><rect width="342.85155851775386" height="342.85155851775386" fill="none" stroke="none" visibility="hidden"></rect></g></svg></g></svg>